<?xml version="1.0" standalone="no"?>
<!DOCTYPE svg PUBLIC "-//W3C//DTD SVG 20010904//EN"
 "http://www.w3.org/TR/2001/REC-SVG-20010904/DTD/svg10.dtd">
<svg version="1.0" xmlns="http://www.w3.org/2000/svg"
 width="980.000000pt" height="988.000000pt" viewBox="0 0 980.000000 988.000000"
 preserveAspectRatio="xMidYMid meet">

<g transform="translate(0.000000,988.000000) scale(0.100000,-0.100000)"
fill="#000000" stroke="none">
<path d="M4802 9870 c-260 -36 -482 -199 -593 -435 -80 -172 -74 8 -74 -2245
0 -1926 1 -2008 19 -2075 38 -144 125 -295 219 -382 169 -156 402 -233 617
-205 324 44 570 263 656 587 18 67 19 149 19 2080 l0 2010 -22 85 c-89 336
-360 561 -703 583 -41 3 -103 2 -138 -3z"/>
<path d="M2140 8870 c-73 -11 -163 -45 -225 -85 -162 -104 -565 -486 -760
-720 -577 -692 -942 -1478 -1085 -2338 -53 -323 -64 -459 -64 -822 0 -363 11
-499 65 -823 223 -1348 1041 -2577 2207 -3315 676 -429 1428 -680 2237 -748
287 -24 716 -13 1020 27 1794 232 3325 1453 3960 3159 142 383 232 772 282
1215 24 219 24 752 -1 975 -112 1018 -482 1892 -1130 2670 -198 237 -601 618
-765 723 -131 84 -325 110 -471 63 -181 -58 -324 -201 -381 -381 -28 -85 -30
-231 -5 -315 23 -77 77 -180 120 -226 19 -20 78 -74 132 -120 349 -295 591
-570 817 -930 237 -379 419 -851 497 -1291 71 -397 79 -835 24 -1218 -228
-1584 -1457 -2865 -3024 -3154 -1079 -198 -2170 74 -3025 755 -150 119 -378
339 -504 484 -829 959 -1116 2269 -765 3492 207 725 628 1363 1219 1852 55 45
120 106 143 134 151 177 178 433 70 641 -41 78 -154 191 -233 233 -108 56
-241 80 -355 63z"/>
</g>
</svg>
